PathFileType	4	(X/Y/Z)	..\data\2014029\dynamic\2014029_C4_05.trc
DataRate	CameraRate	NumFrames	NumMarkers	Units	OrigDataRate	OrigDataStartFrame	OrigNumFrames
100.000000	100.000000	4	52	mm	100.000000	72	194
Frame#	Time	L_IAS			L_IPS			R_IPS			R_IAS			L_FTC			L_FLE			L_FME			L_FAX			L_TTC			L_FAL			L_TAM			L_FCC			L_FM1			L_FM2			L_FM5			R_FTC			R_FLE			R_FME			R_FAX			R_TTC			R_FAL			R_TAM			R_FCC			R_FM1			R_FM2			R_FM5			CV7			TV10			SXS			SJN			L_SIA			L_SRS			L_SAA			L_SAE			L_HLE			L_HME			L_UOA			L_RSP			L_UHE			L_HM2			L_HM5			R_SIA			R_SRS			R_SAA			R_SAE			R_HLE			R_HME			R_UOA			R_RSP			R_UHE			R_HM2			R_HM5			
		X1	Y1	Z1	X2	Y2	Z2	X3	Y3	Z3	X4	Y4	Z4	X5	Y5	Z5	X6	Y6	Z6	X7	Y7	Z7	X8	Y8	Z8	X9	Y9	Z9	X10	Y10	Z10	X11	Y11	Z11	X12	Y12	Z12	X13	Y13	Z13	X14	Y14	Z14	X15	Y15	Z15	X16	Y16	Z16	X17	Y17	Z17	X18	Y18	Z18	X19	Y19	Z19	X20	Y20	Z20	X21	Y21	Z21	X22	Y22	Z22	X23	Y23	Z23	X24	Y24	Z24	X25	Y25	Z25	X26	Y26	Z26	X27	Y27	Z27	X28	Y28	Z28	X29	Y29	Z29	X30	Y30	Z30	X31	Y31	Z31	X32	Y32	Z32	X33	Y33	Z33	X34	Y34	Z34	X35	Y35	Z35	X36	Y36	Z36	X37	Y37	Z37	X38	Y38	Z38	X39	Y39	Z39	X40	Y40	Z40	X41	Y41	Z41	X42	Y42	Z42	X43	Y43	Z43	X44	Y44	Z44	X45	Y45	Z45	X46	Y46	Z46	X47	Y47	Z47	X48	Y48	Z48	X49	Y49	Z49	X50	Y50	Z50	X51	Y51	Z51	X52	Y52	Z52	

73	0.72	605.6754150390626	1034.765258789063	-373.2788696289063	399.1229553222657	1034.27783203125	-295.2007141113282	398.3106384277345	1033.590576171875	-195.2115173339844	601.2346801757814	1050.339233398438	-122.7085494995117	509.8471069335939	942.3862304687502	-437.8992919921876	406.4601440429689	512.2042236328126	-398.8347778320314	405.7591857910157	487.6093139648439	-272.6304931640626	365.2444763183594	457.1617431640626	-405.7128295898439	423.459197998047	420.4307556152345	-344.5388793945313	167.228256225586	139.4288787841797	-373.8669128417969	200.4455566406251	135.4222869873047	-275.6308593750001	97.22068786621097	104.6511535644532	-327.2721252441407	296.7630310058594	16.16460800170899	-290.0206604003907	291.6304931640626	34.41658020019532	-343.2622070312501	234.8294372558594	23.79612350463868	-396.6117248535157	504.4022521972657	938.6409301757815	-58.93199157714845	640.5371093750001	508.1062011718751	-81.90456390380861	648.2645263671876	484.5700073242189	-210.864486694336	634.4566650390626	438.5078125000001	-80.79470825195314	711.4275512695314	450.9378662109376	-135.8032989501953	713.6459960937501	76.17009735107423	-132.1758270263672	744.9498291015626	96.41575622558597	-227.5135955810547	673.4925537109376	17.51757240295411	-183.273193359375	889.5518798828127	32.60935592651368	-210.7601928710938	882.8996582031252	42.04551315307618	-150.1994171142578	851.635925292969	15.98590850830078	-100.1260375976563	482.9771423339845	1572.506225585938	-260.1814575195313	389.680389404297	1310.333129882813	-258.6832885742188	643.8910522460939	1276.615356445313	-246.8819274902344	609.6637573242189	1470.56591796875	-247.7129974365235	371.8471374511719	1349.5888671875	-362.6561584472657	422.0913391113282	1500.746704101563	-366.8866271972657	483.6518554687501	1493.684204101563	-474.3775634765626	540.2823486328126	1494.603271484375	-472.926239013672	589.1702270507814	1150.164184570313	-573.7020874023439	551.5407104492189	1125.911254882813	-487.5467224121095	551.0112915039064	1113.831176757813	-535.2647705078126	809.4580688476565	966.3239746093752	-515.1271362304689	750.8196411132814	936.1729736328127	-575.6268920898439	874.9888305664065	917.5615844726565	-506.6348266601564	805.355407714844	867.5408935546877	-581.0780029296876	360.7477722167969	1347.407104492188	-174.2646179199219	408.4525451660157	1494.229858398438	-165.3928833007813	444.1531372070314	1495.00732421875	-53.98153305053712	496.0304565429689	1497.612548828125	-34.51364517211915	416.4694213867189	1148.9609375	17.04191970825196	417.2677612304689	1134.452758789063	-75.69783782958986	391.8494262695314	1130.828125	-20.78477478027344	538.7388305664064	883.2807617187502	19.54805564880371	451.0799255371095	886.957214355469	42.9057960510254	567.2969970703126	796.6680297851565	24.53802299499512	452.1235656738282	797.3294677734377	47.26843261718751	
74	0.73	617.7833862304689	1036.036499023438	-371.8211669921876	410.9859313964845	1036.074462890625	-293.6818542480469	410.8509216308595	1035.785522460938	-193.6134338378907	613.9556274414064	1052.567626953125	-121.4641342163086	522.4156494140626	942.9943847656252	-436.0720520019532	423.6811828613282	512.3400268554689	-398.6114196777345	424.5531616210939	486.3237915039064	-272.6485290527344	381.7693786621094	458.0181884765626	-405.5897827148439	440.2037963867189	419.553192138672	-345.4689941406251	174.8751678466797	146.5016021728516	-374.1947937011719	209.0402984619141	140.342529296875	-276.5315856933594	104.4270401000977	114.980224609375	-326.6207580566407	296.3521118164063	16.2510986328125	-289.8973083496094	292.1705932617188	34.55353546142579	-342.1376953125001	236.2441558837891	26.40719985961915	-395.9769287109376	516.9803466796876	941.2195434570315	-56.97776031494142	647.7112426757814	508.9347534179689	-80.71593475341798	654.0341796875001	485.361785888672	-209.8385620117188	640.9044799804689	439.3338623046876	-79.62973785400392	717.4750976562501	450.8815307617189	-135.3609313964844	714.8507080078126	76.17982482910158	-132.5054321289063	745.6911621093751	96.04386901855472	-228.138900756836	673.5126342773439	18.03786087036133	-182.9477081298828	890.123229980469	29.57819938659669	-211.4397430419922	884.4857177734377	40.14798736572266	-150.4275665283203	852.204528808594	14.67789077758789	-99.32914733886722	494.3756408691407	1574.294799804688	-257.5936279296876	401.6972045898439	1311.73828125	-256.7131652832032	655.9349975585939	1278.859252929688	-245.1537780761719	621.2407836914064	1472.648559570313	-245.5851745605469	383.4419860839844	1351.388916015625	-360.3966674804688	433.2634582519532	1502.742797851563	-364.3500671386719	494.6785888671876	1495.990844726563	-471.8210449218751	551.2600708007814	1496.997314453125	-470.6163330078126	596.5857543945314	1151.613525390625	-570.4630126953126	559.4345092773439	1128.218505859375	-483.6802368164064	558.3377685546876	1115.9296875	-531.4208374023439	814.5195312500002	964.5449218750002	-513.1641235351564	755.0354614257814	935.293151855469	-573.2425537109376	879.3950195312502	914.800964355469	-505.1409301757814	808.450134277344	865.8118286132815	-579.0394897460939	372.6959228515626	1348.806030273438	-171.9691619873047	420.2188110351564	1495.655151367188	-162.8318634033203	456.0447998046876	1496.361083984375	-51.594295501709	507.9503784179689	1499.055786132813	-32.13647842407227	428.8962402343751	1150.283081054688	18.53855133056641	429.7913818359376	1135.973876953125	-74.25241088867189	404.1455078125001	1132.35791015625	-19.37250328063965	550.4147949218751	884.261657714844	20.45679664611817	462.7028808593751	888.133239746094	43.7998161315918	578.5840454101564	797.3616333007815	25.33886909484864	463.3811035156251	798.4890747070315	47.9263038635254	
75	0.74	629.6455078125001	1037.4345703125	-370.3890991210938	422.6689758300782	1037.987548828125	-292.1102600097657	423.2832641601564	1038.121215820313	-191.946044921875	626.5814819335939	1054.846557617188	-120.2396316528321	534.8846435546876	943.6536254882815	-434.2105407714845	442.1984863281251	512.2880859375001	-398.5272216796876	444.8963012695314	484.7652282714845	-272.8998107910157	399.6580200195314	458.772674560547	-405.5883789062501	458.2700500488282	418.5706787109376	-346.6013183593751	183.866195678711	153.9320983886719	-374.4656066894532	219.0249633789063	145.491928100586	-277.4509582519532	113.1446762084961	125.9004974365235	-325.8327331542969	296.3300170898438	16.68279457092286	-289.8687744140626	293.3093566894532	35.01438140869141	-341.0166320800782	238.4733123779297	29.67321395874024	-395.4168395996095	529.4521484375001	943.857360839844	-55.03148269653322	654.4729614257814	509.8028259277345	-79.43000793457033	659.4735107421876	486.2058410644532	-208.7035369873047	646.9428100585939	440.2077026367189	-78.36616516113283	723.1254272460939	450.909881591797	-134.7559814453125	715.8178100585939	76.33225250244142	-132.656234741211	746.2053833007814	95.90614318847658	-228.5733642578126	673.5930175781251	18.52648735046387	-182.5320587158203	890.5232543945315	27.32891464233399	-212.0490875244141	885.8833618164065	38.84869766235352	-150.6651916503907	852.7093505859377	13.89601135253907	-98.64100646972659	505.745330810547	1576.17578125	-255.0200958251954	413.6800231933595	1313.23779296875	-254.6694641113282	667.9063110351564	1281.17578125	-243.5091400146485	632.7994995117189	1474.829711914063	-243.5338439941407	395.0236206054689	1353.36474609375	-358.2200622558594	444.4100952148439	1504.864135742188	-361.8323669433594	505.6734619140626	1498.501953125	-469.2855834960939	562.1864624023439	1499.59228515625	-468.3335876464845	603.7249145507814	1153.19921875	-567.1155395507814	567.1130981445314	1130.789306640625	-479.6380615234376	565.3834228515626	1118.23486328125	-527.4015502929689	819.0317382812502	962.647644042969	-511.2254333496095	758.6246948242189	934.4031372070315	-570.8134155273439	883.175720214844	911.833435058594	-503.7049560546876	810.7807617187502	863.9918212890627	-576.9741821289064	384.6253356933595	1350.4091796875	-169.5296173095703	432.0474548339845	1497.207153320313	-160.2284088134766	468.0955200195314	1497.897827148438	-49.19942474365236	520.0095825195314	1500.69580078125	-29.79868507385255	441.4403076171876	1151.838989257813	20.13973236083985	442.3926391601564	1137.718139648438	-72.7265090942383	416.5457153320314	1134.103515625	-17.84951972961426	562.2931518554689	885.487731933594	21.39940834045411	474.5511169433595	889.546325683594	44.8220329284668	590.0518798828126	798.249694824219	26.15235328674317	474.8511352539064	799.8887939453127	48.70468902587892	
76	0.75	641.2232666015626	1038.89501953125	-368.9971923828126	434.1460876464845	1039.93701171875	-290.4777832031251	435.567596435547	1040.516723632813	-190.2079162597657	639.0780639648439	1057.085083007813	-119.0428009033203	547.1983032226564	944.326354980469	-432.3287048339845	461.9632568359376	512.0410156250001	-398.5743103027345	466.6639709472657	482.984588623047	-273.3558654785157	418.8750305175782	459.4107666015626	-405.6967163085939	477.583953857422	417.5105285644532	-347.8762207031251	194.2757568359376	161.6363983154297	-374.7076416015626	230.4032592773438	150.8338470458985	-278.3823852539063	123.4273300170899	137.2420806884766	-324.9858703613282	296.9889221191407	17.56502151489258	-289.9932556152344	295.3125305175782	35.90655136108399	-339.9965515136719	241.7608032226563	33.63387298583985	-395.0080871582032	541.7799072265626	946.462341308594	-53.11616516113283	660.8513183593751	510.6634216308595	-78.07088470458986	664.6373291015626	487.0627441406251	-207.4787750244141	652.5975952148439	441.0799560546876	-77.03578948974611	728.4201660156251	450.9747619628907	-134.0021209716797	716.5669555664064	76.56987762451173	-132.669189453125	746.5241699218751	95.93463134765626	-228.8455657958985	673.7216796875001	18.94808769226075	-182.0754699707032	890.7774047851565	25.77291488647462	-212.5897827148438	887.0744628906252	38.05055618286134	-150.9264221191407	853.1457519531252	13.54419040679932	-98.09260559082034	517.0736083984376	1578.076904296875	-252.4778442382813	425.6017150878907	1314.776245117188	-252.5495758056641	679.7786254882814	1283.47998046875	-241.9717864990235	644.3247680664064	1477.0302734375	-241.5825958251954	406.5605773925782	1355.448120117188	-356.1261596679688	455.5119934082032	1507.0361328125	-359.3421936035157	516.6059570312501	1501.135375976563	-466.7879028320314	573.0352172851564	1502.308349609375	-466.0964965820314	610.6099243164064	1154.862426757813	-563.6915283203126	574.5999755859376	1133.5517578125	-475.4687805175782	572.1795654296876	1120.6806640625	-523.2510986328126	823.0339355468752	960.618347167969	-509.3085937500001	761.6450195312501	933.4841308593752	-568.3461303710939	886.3667602539065	908.6521606445315	-502.3071899414064	812.4100341796877	862.075622558594	-574.8760375976564	396.5208740234376	1352.153564453125	-166.9438018798828	443.9324035644532	1498.822265625	-157.5948333740235	480.3126831054689	1499.556030273438	-46.80118560791016	532.2073974609376	1502.467895507813	-27.51923751831055	454.0890502929689	1153.557250976563	21.85566520690918	455.034149169922	1139.61669921875	-71.10777282714845	429.0369262695314	1135.98974609375	-16.19684982299805	574.3890991210939	886.9082031250002	22.37438392639161	486.642059326172	891.132263183594	45.9834213256836	601.7314453125001	799.290710449219	26.96776390075684	486.5639038085939	801.466003417969	49.61761474609376	
